REM DIRINDEX 1\2,1\3\7,1\3\8,1\4\9,1\4\10,1\4\11,1\5\12,1\5\13,1\5\14,1\6\15,1\6\16,1\6\17
REM DIRNAME "folder01","folder02","folder03","folder04","folder05","folder06","folder07","folder08","folder09","folder10","folder11","folder12","folder13","folder14","folder15","folder16","folder17"
TITLE ""
FILE "2Q_t_0971-0987.mp3" MP3
  TRACK 01 AUDIO
    TITLE "0:"
    INDEX 01 00:00:00
  TRACK 02 AUDIO
    TITLE "7:cjc174_3724"
    INDEX 01 00:00:10
  TRACK 03 AUDIO
    TITLE "0:"
    INDEX 01 00:01:18
  TRACK 04 AUDIO
    TITLE "8:cjc174_3725"
    INDEX 01 00:01:65
  TRACK 05 AUDIO
    TITLE "0:"
    INDEX 01 00:05:17
  TRACK 06 AUDIO
    TITLE "7:cjc174_3726"
    INDEX 01 00:05:60
  TRACK 07 AUDIO
    TITLE "0:"
    INDEX 01 00:07:16
  TRACK 08 AUDIO
    TITLE "8:cjc174_3727"
    INDEX 01 00:07:71
  TRACK 09 AUDIO
    TITLE "0:"
    INDEX 01 00:10:42
  TRACK 10 AUDIO
    TITLE "2:cjc174_3728"
    INDEX 01 00:11:10
  TRACK 11 AUDIO
    TITLE "0:"
    INDEX 01 00:12:33
  TRACK 12 AUDIO
    TITLE "7:cjc174_3729"
    INDEX 01 00:13:03
  TRACK 13 AUDIO
    TITLE "0:"
    INDEX 01 00:14:16
  TRACK 14 AUDIO
    TITLE "8:cjc174_3730"
    INDEX 01 00:14:65
  TRACK 15 AUDIO
    TITLE "0:"
    INDEX 01 00:16:03
  TRACK 16 AUDIO
    TITLE "7:cjc174_3731"
    INDEX 01 00:16:49
  TRACK 17 AUDIO
    TITLE "0:"
    INDEX 01 00:17:58
  TRACK 18 AUDIO
    TITLE "8:cjc174_3732"
    INDEX 01 00:18:30
  TRACK 19 AUDIO
    TITLE "0:"
    INDEX 01 00:21:28
  TRACK 20 AUDIO
    TITLE "7:cjc174_3733"
    INDEX 01 00:21:73
  TRACK 21 AUDIO
    TITLE "0:"
    INDEX 01 00:23:31
  TRACK 22 AUDIO
    TITLE "8:cjc174_3734"
    INDEX 01 00:24:13
  TRACK 23 AUDIO
    TITLE "0:"
    INDEX 01 00:25:22
  TRACK 24 AUDIO
    TITLE "7:cjc174_3735"
    INDEX 01 00:25:67
  TRACK 25 AUDIO
    TITLE "0:"
    INDEX 01 00:27:13
  TRACK 26 AUDIO
    TITLE "8:cjc174_3736"
    INDEX 01 00:27:60
  TRACK 27 AUDIO
    TITLE "0:"
    INDEX 01 00:31:70
  TRACK 28 AUDIO
    TITLE "7:cjc174_3737"
    INDEX 01 00:32:40
  TRACK 29 AUDIO
    TITLE "0:"
    INDEX 01 00:33:35
  TRACK 30 AUDIO
    TITLE "8:cjc174_3738"
    INDEX 01 00:34:17
  TRACK 31 AUDIO
    TITLE "0:"
    INDEX 01 00:35:56
  TRACK 32 AUDIO
    TITLE "7:cjc174_3739"
    INDEX 01 00:36:24
  TRACK 33 AUDIO
    TITLE "0:"
    INDEX 01 00:37:47
  TRACK 34 AUDIO
    TITLE "8:cjc174_3740"
    INDEX 01 00:38:21
  TRACK 35 AUDIO
    TITLE "0:"
    INDEX 01 00:39:51
  TRACK 36 AUDIO
    TITLE "7:cjc174_3741"
    INDEX 01 00:40:18
  TRACK 37 AUDIO
    TITLE "0:"
    INDEX 01 00:41:33
  TRACK 38 AUDIO
    TITLE "8:cjc174_3742"
    INDEX 01 00:42:07
  TRACK 39 AUDIO
    TITLE "0:"
    INDEX 01 00:43:47
  TRACK 40 AUDIO
    TITLE "7:cjc174_3743"
    INDEX 01 00:44:17
  TRACK 41 AUDIO
    TITLE "0:"
    INDEX 01 00:45:34
  TRACK 42 AUDIO
    TITLE "8:cjc174_3744"
    INDEX 01 00:46:06
  TRACK 43 AUDIO
    TITLE "0:"
    INDEX 01 00:48:56
  TRACK 44 AUDIO
    TITLE "7:cjc174_3745"
    INDEX 01 00:49:26
  TRACK 45 AUDIO
    TITLE "0:"
    INDEX 01 00:50:51
  TRACK 46 AUDIO
    TITLE "8:cjc174_3746"
    INDEX 01 00:51:23
  TRACK 47 AUDIO
    TITLE "0:"
    INDEX 01 00:53:63
  TRACK 48 AUDIO
    TITLE "7:cjc174_3747"
    INDEX 01 00:54:35
  TRACK 49 AUDIO
    TITLE "0:"
    INDEX 01 00:55:54
  TRACK 50 AUDIO
    TITLE "8:cjc174_3748"
    INDEX 01 00:56:28
  TRACK 51 AUDIO
    TITLE "0:"
    INDEX 01 00:57:71
  TRACK 52 AUDIO
    TITLE "7:cjc174_3749"
    INDEX 01 00:58:41
  TRACK 53 AUDIO
    TITLE "0:"
    INDEX 01 01:00:03
  TRACK 54 AUDIO
    TITLE "8:cjc174_3750"
    INDEX 01 01:00:54
  TRACK 55 AUDIO
    TITLE "0:"
    INDEX 01 01:03:30
  TRACK 56 AUDIO
    TITLE "7:cjc174_3751"
    INDEX 01 01:04:01
  TRACK 57 AUDIO
    TITLE "0:"
    INDEX 01 01:05:22
  TRACK 58 AUDIO
    TITLE "8:cjc174_3752"
    INDEX 01 01:05:69
  TRACK 59 AUDIO
    TITLE "0:"
    INDEX 01 01:07:07
  TRACK 60 AUDIO
    TITLE "7:cjc174_3753"
    INDEX 01 01:07:52
  TRACK 61 AUDIO
    TITLE "0:"
    INDEX 01 01:08:57
  TRACK 62 AUDIO
    TITLE "8:cjc174_3754"
    INDEX 01 01:09:31
  TRACK 63 AUDIO
    TITLE "0:"
    INDEX 01 01:11:73
  TRACK 64 AUDIO
    TITLE "7:cjc174_3755"
    INDEX 01 01:12:41
  TRACK 65 AUDIO
    TITLE "0:"
    INDEX 01 01:13:66
  TRACK 66 AUDIO
    TITLE "8:cjc174_3756"
    INDEX 01 01:14:40
  TRACK 67 AUDIO
    TITLE "0:"
    INDEX 01 01:17:05
  TRACK 68 AUDIO
    TITLE "7:cjc174_3757"
    INDEX 01 01:17:50
  TRACK 69 AUDIO
    TITLE "0:"
    INDEX 01 01:19:16
  TRACK 70 AUDIO
    TITLE "8:cjc174_3758"
    INDEX 01 01:19:63
  TRACK 71 AUDIO
    TITLE "0:"
    INDEX 01 01:21:07
